<?xml version="1.0" encoding="utf-8"?><svg viewBox="0 0 166 60" xmlns="http://www.w3.org/2000/svg" xmlns:xlink="http://www.w3.org/1999/xlink"><style>:root>svg{display:none}:root>svg:target{display:block}</style><svg fill="none" viewBox="0 0 15 26" id="arrow" xmlns="http://www.w3.org/2000/svg"><path d="M2 24l11-11L2 2" stroke="#DBF4F4" stroke-width="4" stroke-linecap="round" stroke-linejoin="round"/></svg><svg fill="none" viewBox="0 0 61 60" id="how1" xmlns="http://www.w3.org/2000/svg"><path d="M37.47 17.537V7.518a2.505 2.505 0 115.01 0v6.545C44.058 12.48 54.252 2.226 55.737.756a2.505 2.505 0 013.541 3.541c-1.482 1.468-11.629 11.67-13.194 13.24h6.414a2.505 2.505 0 010 5.01H42.48a5.01 5.01 0 01-5.01-5.01zm14.164 19.674a7.764 7.764 0 00-10.72.015L36.14 41.25a32.017 32.017 0 01-17.362-17.39l4.007-4.76A7.787 7.787 0 0022.8 8.376s-4.638-6.019-4.716-6.096A7.72 7.72 0 007.25 2.163l-2.88 2.505c-19.334 20.563 30.556 70.476 51.095 50.845l2.284-2.63a7.764 7.764 0 000-10.963c-.083-.068-6.114-4.706-6.114-4.706v-.003z" fill="#89BDBE"/></svg><svg fill="none" viewBox="0 0 72 60" id="how2" xmlns="http://www.w3.org/2000/svg"><path d="M14.955 60a6 6 0 006-6V36a6 6 0 00-6-6v-3a21 21 0 0142 0v3a6 6 0 00-6 6v18h-9a3 3 0 000 6h15a15 15 0 006-28.728V27a27 27 0 00-54 0v4.272a15 15 0 006 28.728z" fill="#89BDBE"/></svg><svg fill="none" viewBox="0 0 60 60" id="how3" xmlns="http://www.w3.org/2000/svg"><path d="M30 0A29.983 29.983 0 008.796 8.825 30.18 30.18 0 000 30.097c1.5 39.88 58.5 39.862 60 0a30.18 30.18 0 00-8.796-21.272A29.983 29.983 0 0030 0zm0 5.016a24.963 24.963 0 0114.063 4.36 25.087 25.087 0 019.187 11.537l-18.19 3.649a26.675 26.675 0 01-10.475 0L6.735 20.98A25.09 25.09 0 0115.914 9.4 24.966 24.966 0 0130 5.015zM5 30.366l10.387 2.084a9.983 9.983 0 013.979 1.767c1.18.875 2.155 2 2.854 3.294l1.563 2.892a10.073 10.073 0 011.204 4.766v9.508a25.021 25.021 0 01-14.259-8.623 25.165 25.165 0 01-5.715-15.688H5zm30 24.31V45.18a10.074 10.074 0 011.205-4.766l1.563-2.892a10.022 10.022 0 012.853-3.294A9.986 9.986 0 0144.6 32.46L55 30.366a25.165 25.165 0 01-5.725 15.695A25.02 25.02 0 0135 54.677z" fill="#89BDBE"/></svg><svg fill="none" viewBox="0 0 60 60" id="how4" xmlns="http://www.w3.org/2000/svg"><path d="M30.015 17.5V1.15a17.453 17.453 0 016.166 3.975l8.715 8.715A17.383 17.383 0 0148.874 20H32.517a2.503 2.503 0 01-2.502-2.5zm-8.544 30h-8.965a2.502 2.502 0 01-2.5-2.5 2.5 2.5 0 012.5-2.5h7.68c-.103-.82-.176-1.65-.176-2.5 0-.85.055-1.68.158-2.5h-7.662a2.502 2.502 0 01-2.5-2.5 2.5 2.5 0 012.5-2.5h8.988a19.885 19.885 0 012.963-5h-11.95a2.502 2.502 0 01-2.502-2.5 2.5 2.5 0 012.501-2.5H26.95a7.435 7.435 0 01-1.936-5V.06C24.61.033 24.207 0 23.8 0H12.506C5.61 0 0 5.607 0 12.5v35C0 54.392 5.61 60 12.506 60H37.52c.285 0 .553-.065.833-.085A20.032 20.032 0 0121.471 47.5zm30.833 1.242c2.349-3.297 3.414-7.57 2.401-12.107-1.235-5.527-5.695-9.99-11.23-11.202a15.05 15.05 0 00-14.006 4.021 15.035 15.035 0 00-4.024 13.998c1.214 5.533 5.678 9.99 11.209 11.226 4.542 1.015 8.817-.053 12.113-2.4l6.994 6.99A2.502 2.502 0 0060 57.49a2.5 2.5 0 00-.702-1.758l-6.994-6.99zM41.961 46.16l-.01.01c-1.86 1.86-5.147 1.865-7.06-.047l-3.79-3.938a2.498 2.498 0 011.849-4.23 2.5 2.5 0 011.753.765l3.74 3.883 7.253-7.428a2.5 2.5 0 013.577 3.492l-7.317 7.493h.005z" fill="#89BDBE"/></svg><svg fill="none" viewBox="0 0 60 60" id="how5" xmlns="http://www.w3.org/2000/svg"><path d="M38.223 10.504a2.5 2.5 0 01.022-3.535l5.51-5.443a5.268 5.268 0 017.426.01l5.568 5.42a2.5 2.5 0 01-1.742 4.29 2.477 2.477 0 01-1.743-.71l-3.258-3.17v15.131a2.5 2.5 0 11-5 0V7.321l-3.243 3.203a2.5 2.5 0 01-3.538-.023l-.002.003zm21.781 16.994v25.001c0 4.136-3.365 7.501-7.5 7.501H12.5C5.608 60 0 54.392 0 47.5V22.496a12.51 12.51 0 0112.5-12.5h17.502a2.5 2.5 0 110 5H12.501a7.48 7.48 0 00-5.588 2.502 7.531 7.531 0 005.588 2.498h27.502v2.5c0 4.136 3.365 7.5 7.5 7.5 4.136 0 7.501-3.364 7.501-7.5v-2.04c2.903 1.035 5 3.785 5 7.04zm-10 12.5a3.754 3.754 0 00-3.753-3.75 3.754 3.754 0 00-3.75 3.753A3.751 3.751 0 1050.004 40z" fill="#89BDBE"/></svg><svg fill="none" viewBox="0 0 166 45" id="logo" xmlns="http://www.w3.org/2000/svg"><path d="M31.081 29.596c-3.054 3.483-8.172 5.143-13.47 3.116-2.481-.95-5.294-3.754-6.231-6.22-3.173-8.28 2.92-16.088 10.86-16.088A11.79 11.79 0 0127 11.4c1.499.659 2.84 1.623 3.937 2.829a1.913 1.913 0 002.35.38l2.98-1.662a16.78 16.78 0 00-7.514-6.22 16.905 16.905 0 00-12.821-.09 16.77 16.77 0 00-5.46 3.557 16.572 16.572 0 00-3.67 5.353 16.419 16.419 0 00-.09 12.688 16.663 16.663 0 009.003 9.034 16.946 16.946 0 0011.415.573 16.764 16.764 0 009.137-6.793l-3.21-1.791a1.598 1.598 0 00-1.976.337z" fill="#010101"/><path d="M37.012 31.465a17.54 17.54 0 01-8.654 6.846 17.747 17.747 0 01-11.073.36 17.574 17.574 0 01-9.09-6.268A17.269 17.269 0 014.702 22c0-3.75 1.225-7.4 3.493-10.405a17.573 17.573 0 019.09-6.268 17.747 17.747 0 0111.073.36 17.54 17.54 0 018.654 6.846l4.173-2.322-.604-.951a.72.72 0 00-.889-.282l-1.209.536.77-1.158a.797.797 0 00-.079-.965l-1.24-1.32a.699.699 0 00-.922-.096l-1.084.761.542-1.292a.779.779 0 00-.252-.933l-1.455-1.04a.704.704 0 00-.924.085l-.93.966.299-1.376a.768.768 0 00-.423-.866l-1.625-.732a.712.712 0 00-.892.268l-.734 1.134.04-1.41a.748.748 0 00-.152-.485.762.762 0 00-.43-.28l-1.71-.399a.727.727 0 00-.813.446l-.515 1.254-.219-1.391a.733.733 0 00-.238-.449.747.747 0 00-.475-.19L23.262 0a.744.744 0 00-.476.168.73.73 0 00-.256.43l-.298 1.45-.301-1.45a.725.725 0 00-.254-.43.74.74 0 00-.475-.168l-1.764.046a.749.749 0 00-.466.194.734.734 0 00-.233.444l-.217 1.391-.517-1.254A.71.71 0 0017.68.45a.722.722 0 00-.49-.075l-1.733.4a.759.759 0 00-.414.285.746.746 0 00-.142.48l.027 1.41-.737-1.132a.703.703 0 00-.891-.268l-1.626.732a.764.764 0 00-.42.866l.298 1.375-.93-.965a.702.702 0 00-.923-.086l-1.455 1.04a.785.785 0 00-.255.934l.542 1.292-1.084-.761a.705.705 0 00-.924.096L5.29 7.387a.8.8 0 00-.081.965l.772 1.159-1.209-.537a.717.717 0 00-.888.282l-.976 1.534a.798.798 0 00.1.965l.968.984-1.282-.268a.724.724 0 00-.813.45l-.68 1.692a.778.778 0 00.271.928l1.13.775-1.311-.022a.742.742 0 00-.47.17.728.728 0 00-.251.428l-.352 1.815a.76.76 0 00.436.866l1.244.537-1.29.241a.757.757 0 00-.424.261.743.743 0 00-.167.466L0 22.92a.743.743 0 00.157.479.757.757 0 00.428.271l1.325.269-1.222.501a.765.765 0 00-.452.847l.322 1.81c.025.17.11.325.24.44.13.113.297.178.47.182h1.355l-1.109.73a.784.784 0 00-.29.92l.643 1.734a.727.727 0 00.813.467l1.327-.269-.954.936a.782.782 0 00-.116.963l.946 1.552a.712.712 0 00.883.298l1.254-.52-.766 1.107a.798.798 0 00.062.968l1.214 1.34a.704.704 0 00.921.119L8.59 37.3l-.542 1.24a.78.78 0 00.236.94l1.436 1.072a.707.707 0 00.927-.07l.975-.976-.312 1.34a.762.762 0 00.404.872l1.604.764a.711.711 0 00.897-.252l.78-1.153-.065 1.368a.75.75 0 00.134.481c.099.14.243.244.408.294l1.715.431a.725.725 0 00.835-.426l.542-1.287.187 1.354c.02.171.098.33.223.449.126.119.29.19.462.203l1.764.08a.74.74 0 00.49-.166.724.724 0 00.258-.445l.271-1.21.271 1.21c.033.168.126.32.261.426a.736.736 0 00.479.158l1.76-.08a.746.746 0 00.464-.202.732.732 0 00.225-.45l.187-1.354.542 1.287a.724.724 0 00.835.426l1.712-.431a.764.764 0 00.43-.284.75.75 0 00.15-.49l-.065-1.368.78 1.153a.704.704 0 00.897.252l1.604-.765a.765.765 0 00.404-.871l-.314-1.34.978.975a.705.705 0 00.926.07l1.434-1.072a.788.788 0 00.238-.939l-.542-1.241 1.138.764a.708.708 0 00.921-.118l1.212-1.34a.8.8 0 00.062-.969l-.767-1.107 1.257.52a.715.715 0 00.884-.298l.585-.962-4.154-2.298z" fill="#010101"/><path d="M40.752 30.2l-12.695-7.184a.956.956 0 01-.484-.817.944.944 0 01.468-.827l12.795-7.563a.972.972 0 011.328.342c.085.146.13.312.13.48l-.101 14.748a.945.945 0 01-.482.82.97.97 0 01-.96 0z" fill="#E73C1E"/><path d="M53.697 21.928a6.559 6.559 0 01-3.124-.716 5.234 5.234 0 01-2.105-2.032 6.115 6.115 0 01-.756-3.092 6.266 6.266 0 01.444-2.389 5.452 5.452 0 011.255-1.877 5.631 5.631 0 011.897-1.222 6.586 6.586 0 012.42-.43 6.952 6.952 0 012.392.357c.641.23 1.237.57 1.761 1.003l-1.355 2.193a3.044 3.044 0 00-1.146-.721 4.332 4.332 0 00-1.468-.239 4.114 4.114 0 00-1.423.23 2.94 2.94 0 00-1.057.658 2.812 2.812 0 00-.663 1.03 3.854 3.854 0 00-.228 1.362c-.018.61.123 1.215.412 1.756.267.484.677.877 1.176 1.126a3.983 3.983 0 001.837.38c.514 0 1.026-.076 1.517-.227a4.539 4.539 0 001.43-.746l1.239 2.247a6.385 6.385 0 01-1.897.97c-.826.264-1.69.392-2.558.379zM60.081 21.686v-11.28h9.904v11.28h-2.71v-8.848h-4.49v8.848h-2.704zM72.385 21.686v-11.28h4.566a5.468 5.468 0 012.262.443 3.622 3.622 0 011.55 1.276c.39.598.588 1.3.566 2.011a3.722 3.722 0 01-.52 2.022 3.278 3.278 0 01-1.512 1.27 5.999 5.999 0 01-2.411.435h-1.8v3.823h-2.7zm2.71-6.067h1.734c.467.026.93-.091 1.328-.335a1.255 1.255 0 00.482-1.1 1.289 1.289 0 00-.493-1.131 2.184 2.184 0 00-1.3-.352h-1.751v2.918zM81.316 21.686l4.26-11.28h3.134l4.3 11.28h-3.053l-.813-2.281h-4.065l-.788 2.281h-2.975zm4.365-4.526h2.85l-1.433-3.898-1.417 3.898zM94.408 21.686v-11.28h4.414c1.162 0 2.09.24 2.786.721a2.446 2.446 0 011.043 2.146 2.15 2.15 0 01-.211.949 2.58 2.58 0 01-.561.764c-.24.22-.515.402-.813.536.593.2 1.111.574 1.485 1.073.382.515.581 1.14.566 1.78.014.62-.163 1.23-.509 1.748a3.329 3.329 0 01-1.445 1.153 5.517 5.517 0 01-2.224.41h-4.53zm2.71-6.655h1.355c.288.008.575-.047.84-.16.222-.102.41-.265.542-.47.129-.22.192-.472.181-.726a1.144 1.144 0 00-.42-.955 1.887 1.887 0 00-1.2-.335h-1.303l.005 2.646zm0 4.682h1.425c.468.034.934-.091 1.32-.357a1.284 1.284 0 00.44-1.073 1.331 1.331 0 00-.424-1.05 1.818 1.818 0 00-1.246-.376h-1.515v2.856zM110.501 21.928a6.474 6.474 0 01-2.439-.448 5.908 5.908 0 01-1.935-1.244 5.68 5.68 0 01-1.27-1.877 6.23 6.23 0 010-4.65 5.673 5.673 0 011.27-1.876 5.818 5.818 0 011.935-1.242 6.518 6.518 0 012.439-.442 6.4 6.4 0 012.422.45 5.862 5.862 0 011.932 1.258 5.726 5.726 0 011.276 1.877 5.88 5.88 0 01.45 2.3 5.95 5.95 0 01-.45 2.322 5.636 5.636 0 01-1.276 1.877 5.916 5.916 0 01-1.932 1.244 6.448 6.448 0 01-2.422.45zm0-2.515c.441.004.88-.075 1.292-.233.39-.151.743-.383 1.035-.679.3-.306.532-.672.68-1.072.165-.446.247-.917.241-1.392a3.601 3.601 0 00-.425-1.78 3.006 3.006 0 00-1.149-1.164 3.343 3.343 0 00-1.669-.416 3.507 3.507 0 00-1.295.234 2.942 2.942 0 00-1.03.678c-.299.307-.53.672-.68 1.072-.17.446-.254.919-.247 1.395a3.59 3.59 0 00.426 1.78c.267.492.669.899 1.16 1.175a3.335 3.335 0 001.661.402zM124.823 21.686v-4.29c-.428.12-.862.219-1.3.295-.44.074-.885.11-1.331.108-.78.019-1.555-.13-2.27-.438a3.18 3.18 0 01-1.488-1.386 5.092 5.092 0 01-.526-2.47v-3.099h2.71v2.732c0 .845.179 1.438.542 1.784.43.366.989.55 1.555.514a8.41 8.41 0 001.141-.07c.33-.045.656-.104.978-.179v-4.78h2.71v11.28h-2.721zM129.925 21.686v-11.28h2.71v4.18h4.495v-4.18h2.709v11.28h-2.709V17.03h-4.501v4.657h-2.704zM141.227 21.686l4.259-11.28h3.135l4.3 11.28h-3.046l-.812-2.281h-4.081l-.791 2.281h-2.964zm4.365-4.526h2.85l-1.433-3.898-1.417 3.898zM153.655 21.686l3.062-4.577a3.765 3.765 0 01-1.788-1.171 2.991 2.991 0 01-.648-1.947 3.44 3.44 0 01.542-1.973 3.293 3.293 0 011.523-1.207 6.017 6.017 0 012.303-.405h4.465v11.28h-2.709v-4.15h-1.033l-2.622 4.15h-3.095zm5.105-6.293h1.645v-2.79h-1.604a2.317 2.317 0 00-1.312.326 1.175 1.175 0 00-.479 1.051 1.237 1.237 0 00.455 1.073c.383.25.837.369 1.295.34zM47.122 33.682l3.289-8.714h2.425l3.32 8.714h-2.353l-.623-1.761h-3.16l-.609 1.761h-2.29zm3.37-3.485h2.203l-1.108-3.014-1.095 3.014zM57.236 33.682v-8.714h3.409a3.729 3.729 0 012.151.558 1.86 1.86 0 01.813 1.652c.003.254-.052.505-.162.734a2 2 0 01-.445.596 2.3 2.3 0 01-.626.413c.459.155.86.444 1.15.828.294.399.447.882.435 1.376.01.476-.127.943-.392 1.34-.28.395-.667.704-1.117.89a4.249 4.249 0 01-1.718.317l-3.498.01zm2.087-5.14h1.037a1.53 1.53 0 00.648-.126.953.953 0 00.423-.359c.104-.171.157-.368.151-.568a.884.884 0 00-.325-.738 1.458 1.458 0 00-.926-.268h-1.008v2.06zm0 3.617h1.1c.36.03.72-.065 1.018-.268a1 1 0 00.34-.82 1.02 1.02 0 00-.329-.805 1.409 1.409 0 00-.962-.29h-1.17l.003 2.184zM67.061 33.682v-6.826h-2.346v-1.877h6.792v1.877h-2.346v6.826h-2.1zM76.62 33.87a4.965 4.965 0 01-1.872-.345 4.493 4.493 0 01-1.496-.963 4.368 4.368 0 01-.98-1.443 4.78 4.78 0 010-3.593c.226-.54.56-1.03.98-1.442.43-.415.938-.741 1.496-.96a5.018 5.018 0 011.872-.34 4.922 4.922 0 011.873.348 4.515 4.515 0 011.493.97c.423.413.758.906.986 1.449a4.55 4.55 0 01.347 1.775 4.614 4.614 0 01-.347 1.793 4.303 4.303 0 01-.986 1.443 4.538 4.538 0 01-1.493.963 4.965 4.965 0 01-1.873.345zm0-1.94c.342.002.682-.06 1-.183.303-.12.575-.303.8-.536a2.34 2.34 0 00.525-.824c.128-.343.192-.706.187-1.072a2.793 2.793 0 00-.328-1.376 2.326 2.326 0 00-.894-.903 2.563 2.563 0 00-1.29-.322 2.703 2.703 0 00-1 .18c-.3.12-.571.303-.793.536a2.41 2.41 0 00-.526.823c-.13.343-.195.706-.19 1.073-.012.478.1.952.328 1.375.206.38.516.694.894.906.393.218.837.33 1.287.322zM82.847 33.682v-8.714h2.008l3.346 5.497h-.83l3.182-5.497h2v8.714h-2.025l.038-6.073.372.137-2.542 4.29h-1.39l-2.642-4.29.358-.137.038 6.073h-1.913zM98.782 33.87a4.98 4.98 0 01-1.875-.345 4.522 4.522 0 01-1.496-.963 4.368 4.368 0 01-.98-1.443 4.827 4.827 0 010-3.593c.226-.54.56-1.03.98-1.442.43-.414.938-.74 1.496-.96a5.032 5.032 0 011.875-.34 4.897 4.897 0 011.869.348 4.446 4.446 0 012.832 4.194 4.566 4.566 0 01-.35 1.793 4.334 4.334 0 01-.983 1.443c-.43.415-.938.742-1.496.963a4.952 4.952 0 01-1.872.345zm0-1.94c.342.002.681-.06 1-.183.301-.12.573-.303.796-.536.233-.235.412-.515.526-.824.128-.343.191-.706.187-1.072a2.762 2.762 0 00-.328-1.376 2.303 2.303 0 00-.892-.903 2.565 2.565 0 00-1.29-.322 2.709 2.709 0 00-1.002.18c-.3.12-.57.303-.794.536a2.41 2.41 0 00-.525.823 2.88 2.88 0 00-.19 1.073 2.78 2.78 0 00.328 1.375c.207.38.517.694.897.906.392.218.837.33 1.287.322zM105.008 33.682v-8.714h5.988v1.794h-3.901v1.66h1.341c1.005 0 1.807.222 2.401.665.593.442.888 1.102.888 1.968a2.504 2.504 0 01-.395 1.429c-.28.403-.674.716-1.133.898-.56.221-1.159.327-1.761.311l-3.428-.01zm2.087-1.523h1.108a1.56 1.56 0 001.002-.284.996.996 0 00.35-.826 1.041 1.041 0 00-.331-.804 1.332 1.332 0 00-.926-.298h-1.203v2.213zM113.286 33.682v-8.714h2.07v5.449l3.566-5.449h2.075v8.714h-2.07v-5.507l-3.579 5.507h-2.062zM122.94 33.857l-.686-1.877c.252-.075.495-.174.727-.298.196-.108.365-.258.495-.44.146-.226.249-.477.304-.74a6.9 6.9 0 00.152-1.171c.027-.476.04-1.062.04-1.76v-2.603h6.628v8.714h-2.089v-6.826h-2.572v.608c0 .893-.029 1.668-.084 2.328a9.102 9.102 0 01-.287 1.694 3.632 3.632 0 01-.542 1.17 2.68 2.68 0 01-.859.753 4.56 4.56 0 01-1.227.448zM132.683 33.682v-8.714h2.07v5.449l3.566-5.449h2.076v8.714h-2.07v-5.507l-3.58 5.507h-2.062zM146.545 33.87a5.05 5.05 0 01-2.411-.555 3.997 3.997 0 01-1.626-1.568 4.716 4.716 0 01-.585-2.395 4.811 4.811 0 01.344-1.847 4.199 4.199 0 01.967-1.445 4.38 4.38 0 011.477-.944 5.053 5.053 0 011.875-.333 5.347 5.347 0 011.848.268 4.6 4.6 0 011.355.78l-1.046 1.695c-.248-.25-.55-.44-.883-.557a3.33 3.33 0 00-1.136-.183 3.157 3.157 0 00-1.097.177c-.304.11-.581.283-.813.507a2.15 2.15 0 00-.512.804 2.989 2.989 0 00-.176 1.052c-.014.471.095.938.317 1.356.207.375.525.677.91.869.44.212.925.316 1.415.303.397 0 .793-.06 1.173-.177a3.48 3.48 0 001.084-.574l.956 1.738c-.44.328-.933.581-1.458.748-.639.2-1.307.294-1.978.281zM152.818 33.682v-6.826h-2.346v-1.877h6.792v1.877h-2.343v6.826h-2.103zM156.969 33.682l3.289-8.714h2.423L166 33.682h-2.344l-.62-1.761h-3.173l-.61 1.761h-2.284zm3.371-3.485h2.203l-1.109-3.014-1.094 3.014z" fill="#010101"/></svg><svg fill="none" viewBox="0 0 19 19" id="phone" xmlns="http://www.w3.org/2000/svg"><path d="M17.77 8.68a.774.774 0 01-.774-.773A6.18 6.18 0 0015.18 3.54a6.201 6.201 0 00-4.375-1.812.774.774 0 01-.774-.772.772.772 0 01.774-.772 7.753 7.753 0 015.468 2.264 7.726 7.726 0 012.269 5.46.772.772 0 01-.774.773zm-2.322-.773a4.63 4.63 0 00-1.36-3.277 4.647 4.647 0 00-3.282-1.358.774.774 0 00-.774.773.772.772 0 00.774.772c.82 0 1.608.326 2.188.905.58.58.906 1.366.906 2.185a.772.772 0 00.774.773.774.774 0 00.774-.773zm1.69 9.396l.703-.81a2.393 2.393 0 000-3.381 441.957 441.957 0 00-1.885-1.454 2.4 2.4 0 00-3.313.005l-1.475 1.24A9.893 9.893 0 015.805 7.54l1.238-1.467a2.392 2.392 0 00.005-3.308S5.614.908 5.59.884A2.387 2.387 0 002.243.848l-.89.773c-5.256 6.088 6.064 17.302 12.363 17.1a4.768 4.768 0 003.421-1.418z" fill="#fff"/></svg></svg>